<?xml version="1.0" encoding="UTF-8"?>
<svg id="Layer_2" data-name="Layer 2" xmlns="http://www.w3.org/2000/svg" viewBox="0 0 433.38 414.04">
  <defs>
    <style>
      .cls-1 {
        fill: #a5b4db;
      }

      .cls-2 {
        fill: #eb6e26;
      }

      .cls-3 {
        fill: #1c1;
      }
    </style>
  </defs>
  <g id="Layer_1-2" data-name="Layer 1">
    <path class="cls-2" d="M232.15.03c4.34.08,12.25-.7,15.72,2.29,4.79,4.12,5.62,23.78,9.89,26.6,5.48,3.62,21.55,3.74,28.16,7.95,1.23.43,1.84-.23,2.77-.77,4.34-2.53,13.6-15.22,18.44-16.67,4.39-1.31,11.35,2.79,15.35,4.78,4.81,2.39,22.03,12.02,24.1,15.89,3.57,6.69-3.87,21.56-4.26,29.22l21.01,22.56c2.17,1.28,22.14-6.72,29.13-4.66,4.74,1.4,21.3,30.02,21.67,35.41.5,7.19-14,17.04-17.82,23.08l6.85,27.56c6.8,4.79,27.5,4.69,28.94,14.3,1.46,9.69,2.01,28.37-.16,37.73-1.91,8.23-22.28,7.68-28.25,12.75-.37,8.41-6.4,19.29-7.36,26.74-.25,1.9-.19,2.15.77,3.78,4.41,7.48,19.15,12.59,16.64,23.52-.96,4.19-16.26,30.92-19.29,32.97-7.4,5.01-21.99-3.43-30.56-2.88-5.04,4.04-8.61,9.33-13.2,13.86-2.55,2.52-8.55,5.17-8.35,9.19.41,8.51,9.66,21.35,2.85,29.31-2.9,3.39-29.17,18.12-33.52,18.52-10.23.93-15.91-12.92-24.06-17.07l-29.71,7.03c-2.69,1.2-5.93,23.66-9.69,27.55-2.83,2.92-11.98,3.45-16.05,3.45v-67c70.67-3.27,130.77-60.4,134.99-131.51,4.69-79.06-56.34-146.01-134.99-149.49V.03Z"/>
    <path class="cls-3" d="M79.8,186.39c8.73,9.5,13.54,25.26,12.23,38.02-.5,4.84-3.91,11.41-3.9,15.12,0,2.83,3.76,12.72,5,16.03,19.83,52.89,72.5,89.78,129.02,91.48v67c-5.62-.18-16.11.82-20.53-2.98s-6.42-20.35-8.48-26.29l-30.44-8.77c-7.22,3.36-14.74,18.07-23.06,18.04-4.94-.01-30.59-14.69-34.39-18.63-7.36-7.62,1.21-20.03,1.85-29.03.35-4.94-2.73-4.56-5.48-7.33-5.34-5.36-10.95-10.48-15.49-16.59-9.64-.67-24.42,9.44-32.52,1.6-4.13-4-15.44-24.69-17.51-30.48-4.02-11.24,13.31-18.35,17.04-27.55-31.68,4.58-59.94-25.7-51.7-57.21.3-1.15,1.56-6.42,3.19-5.79l26.53,30.47c7.94,1.99,15.79-1.49,23.06-4.15,2.66-7.95,10.7-13.67,8.9-22.81l-26.97-33.51c15.35-3.8,33.05,1.81,43.65,13.34Z"/>
    <path class="cls-3" d="M222.15.03v66.01c-65.64,1.23-124.61,50.94-135.01,115.99-10.53-11.17-23.38-18.28-38.99-19.01l4.81-16.25c-3.2-7.66-17.94-14.95-17.91-23.24.02-4.95,9.85-21.17,13.07-26.02,1.95-2.94,6-9.77,9.54-10.45,7.72-1.49,18.44,3.4,26.2,4.76l22.81-21.82c1.36-10.99-10.68-25-.02-33.97,3.59-3.02,29.25-16.9,33.02-17.07,7.61-.35,16.09,14.72,23.2,17.94l30.27-8.61C195.97,20.25,196.33.03,207.65.03h14.5Z"/>
    <path class="cls-3" d="M160.02,282.16c-16.13,1.74-33.11-11.45-34.88-27.62-.45-4.11,1.08-11.94.5-14.64-.35-1.61-4.44-5.82-5.67-8.18-4.79-9.25-4.43-21.02,0-30.36,1.23-2.6,4.38-5.39,4.97-8.03,2.7-12.03-2.45-18.38,7.23-30.77,1.85-2.37,7.59-6.64,8.46-8.54,3.15-6.94-2.05-15.5,7.08-25.92,7.1-8.11,13.94-6.5,19.84-10.16,2.26-1.4,4.07-6.55,6.08-8.92,16.79-19.87,48.04-12.51,50.51,14.54,1.97,21.61-1.1,44.42-1.03,65.93.09,30.22,3.22,62.47,1.09,93.1-2.98,42.72-58,36.06-64.17-.42ZM216.15,150.03v-30.5c0-.34-2.31-5.44-2.79-6.21-8.31-13.27-31.44-8.4-36.2,5.7,6.43-2.13,13.86,9.09,16.72,9.86,3.82,1.02,18-6.98,14.03,4.91-6.42.97-16.29,2.97-17.7,10.79-.58,3.23,1.58,11.27-2.75,12.31-6.49.61-5.78-7.45-5.05-12.12.56-3.57,4.78-9.65,4.74-11.26-.05-2.25-5.96-6.32-7.95-7.01-16.58-5.74-32.32,7.39-31.03,24.53,10.94-2.76,29.16-.44,28.88,13.88-5.12,2.81-5.93-1.88-9.16-4.1-6.19-4.26-13.22-4.22-20.02-1.57-17.23,6.71-20.2,36.16-4.66,46.25,2.55,1.65,9.9,2.64,8.85,6.85-6.52,7.76-19.16-4.82-22.39-11.29-10.63,13.56-5.47,35.76,12.5,38.97-2.62-4.95-5.74-11.29-2.75-16.76l4.5-.57c2.59.88,2.22,7.04,3.18,9.9,5.3,15.79,26.28,15.03,31.93-.09-7.23-3.15-21.94-24.76-7.88-25.03,2.34,1.17,2.35,7.77,4.16,10.91,2.35,4.07,8.94,8.65,13.59,9.41,4.12.68,11.56-1.37,13.07,2.95,2.71,7.76-14.19,3.72-15.82,4.74-1.23.78-2.31,4.84-3.56,6.48-5.01,6.6-13.38,10.76-21.82,9.96-4.27-.41-7.27-3.05-10.34-3.68-5.45-1.11-11.81,1.16-16.79-3.2-2.37.16-.56,10.11-.05,12.03,2.62,9.9,12.1,17.64,22.56,16.93-1.88-4.52-4.8-9.77-2.07-14.56,7.71-2.67,6.39,4.96,8.56,9.58,3.24,6.92,11.41,9.35,18.54,7.52,9.82-2.52,6.15-9.35,8.91-17.09,1.74-4.88,11.69-16.87,17.12-13.01,5.5,3.91-5.6,9.07-7.51,11.62-4.21,5.64-5.09,14.03-.98,19.87,2.01,2.86,12.93,7.81,7.49,11.63s-12.51-5.79-15.55-9.33c-3.6,1.8-8.29,4.16-12.31,4.56-3.36.34-4.68-.7-7.43-1.1-1.29-.19-1.38-1.21-2.75.8,6.35,22.74,41.49,28.75,48,3.04l.03-125.08c-1.4-10.44-18.07-5.19-11.38-15.49,4.83-1.01,7.33,1.53,11.33,3.04Z"/>
    <path class="cls-3" d="M230.15,120.53c3.42-25.44,36.03-28.99,50.41-10.41,1.48,1.91,4.36,8.46,4.78,8.73.56.36,7.12,1.12,9.5,2,8.37,3.1,15.41,10.6,17.81,19.19,1.31,4.68.63,12.26,1.66,15.34.28.83,5.33,4.4,6.82,6.18,4.54,5.45,7.48,11.83,8,18.99.27,3.74-1.28,10.75-.8,12.73.4,1.67,4.75,7.12,6,10.08,3.64,8.57,4.17,18.22.56,26.92-1.26,3.05-5.78,7.75-6.32,9.72-.5,1.85.84,9.68.46,13.42-1.83,17.74-18.05,30.91-35.87,28.63-1.13,24.33-33.17,39.08-52.5,24-4.11-3.21-10.5-13.45-10.5-18.5v-74.5c2.94-.68,2.3,2.84,3.62,4.89.98,1.51,4.34,4.62,4.45,5.56,2.32,19.63-2.99,45.91,0,64.99,3.35,21.45,36.99,19.97,45.68.8,4.44-9.81-1.67-4.02-7.92-4.47-3.88-.28-9.53-1.91-12.31-4.75-3.79,5.47-7.64,11.4-15.35,9.84-3.73-7.32,1.93-6.73,5.37-9.84,6.06-5.49,5.87-15.78.91-21.94-3.41-4.24-11.36-5.26-7.49-11.64,7.98-2.01,15.77,7.61,17.78,14.35,2.36,7.89-1.34,14.48,9.85,16.17,6.03.91,14.28-2.21,16.94-7.93,1.48-3.17,2.1-13.96,8.08-9.1,4.62,3.74-2.79,13.51-1.58,15.09,15.64-1.81,23.74-13.83,23.98-28.99-5.7,1.98-11.73,1.17-17.44,2.05-2.93.46-5.84,2.88-9.5,3.49-11.2,1.88-21.85-4.09-26.06-14.55h-15.5c-2.25,0-3.43-5.73-.49-7.56,1.45-.91,5.03.74,7.44.6,4.67-.27,11.98-2.32,15.02-6.08,3.29-4.06,2.32-11.89,9.4-9.82,3.66,8.06-4.38,15.2-8.93,20.35,6.37,12.75,23.79,12.86,30.26.21,2.74-5.35,0-14.4,7.81-11.2,5.54,3.24-2.65,15.9-2,16.5,17.44-3.28,21.2-23.75,13.98-37.99-1.15-.86-6.43,6.07-8.07,7.41-2.98,2.44-14.15,9.54-15.81,2.89-1-4.01,7.21-5.98,9.83-7.87,14.74-10.68,11.07-31.49-1.43-42.44-4.88-4.27-3.04-.73-6.56-7.25-.58-1.07-3.59-.74-1.44-2.76h4.49c-.07-18.65-15.54-29.32-33.47-25.97-2.96.55-4.02,4.8-6.53,3.53-5.73-5.91,3.81-8.46,8.5-9.59,1.12-.27,1.9.73,1.52-1.48-.48-2.8-8.12-8.96-10.79-10.22-11.97-5.62-26.69-1.03-28.23,13.23-2.09,19.36,1.59,42.23-.02,61.98l-7.98,10.52v-73.5Z"/>
    <path class="cls-3" d="M195,188.18c4.81,7.83-9.7,11.9-15.35,11.93-11.31.05-22.53-9.15-23.48-20.58-.24-2.92-.78-8.35,2.68-9.34,6.21-1.76,3.99,5.2,4.53,8.03,1.79,9.35,8.68,14.65,18.26,13.83,5.78-.5,7.59-5.37,13.36-3.86Z"/>
    <path class="cls-1" d="M280.93,130.24c2.09,1.52-1.37,5.91,3.91,8.7,4.17,2.2,6.79-4.18,11.15,1.76,5.18,7.06-2.77,6-1.68,11.59,1.15,5.94,9.34,3.18,6.64,12.04-1.31,4.31-5.76,1.19-7.54,2.93-5.45,5.33,3.36,9.81-3.9,13.63-5.57,2.93-4.84-2.58-9.76-1.86-5.76.83-4.11,5.33-5.16,6.12l-7.38.83c.48-9.16-8.42-12.02-15.88-9.09-6.09-6.97-.52-7.92-.14-11.38.8-7.34-6.21-6.06-6.93-8.12l.96-8.32c6.94.97,13.39-4.63,7.12-10.56,2.62-2.81,4.72-6.42,9.15-5.49.43.09,2.17,3.89,5.8,3.53,5.49-.54,4.05-6.66,6.54-7.46l7.13,1.13ZM286.52,157.67c0-7.63-6.18-13.81-13.81-13.81s-13.81,6.18-13.81,13.81,6.18,13.81,13.81,13.81,13.81-6.18,13.81-13.81Z"/>
    <path class="cls-3" d="M262.92,182.27c1.27,1.33.65,4.53,2.23,6.28,2.46,2.71,8.36-1.73,10.55,3.52.98,2.36-4.14,6.79-.1,10.06,2.68,2.17,4.9-.54,3.42,7.28l-7.41,3.63.36,7.8c-4.61,4.59-6.97-.94-11.12.34-2.82.87-2.68,6.93-9.06,4.71-2.65-.92-.77-4.21-2.28-5.96-3.46-3.99-9.34,1.58-11.86-3.94-1.66-3.63,5.88-10.83-3.5-11.99l1.08-6.9c3.46.4,7.63-1.67,7.56-5.6-.04-2.37-3.48-3.91,2.66-6.75,3.65-1.69,3.47,2.16,6.16,2.25,4.46.15,5.92-10.38,11.31-4.75ZM267.51,203.75c0-6-4.86-10.86-10.86-10.86s-10.86,4.86-10.86,10.86,4.86,10.86,10.86,10.86,10.86-4.86,10.86-10.86Z"/>
    <path class="cls-3" d="M195,188.18c4.81,7.83-9.7,11.9-15.35,11.93-11.31.05-22.53-9.15-23.48-20.58-.24-2.92-.78-8.35,2.68-9.34,6.21-1.76,3.99,5.2,4.53,8.03,1.79,9.35,8.68,14.65,18.26,13.83,5.78-.5,7.59-5.37,13.36-3.86Z"/>
  </g>
</svg>